<svg xmlns="http://www.w3.org/2000/svg" viewBox="0 0 30.59 30.59"><defs><style>.cls-1{fill:#4092cf;}.cls-2{fill:#fff;}</style></defs><title>Home_select</title><g id="Layer_2" data-name="Layer 2"><g id="Layer_1-2" data-name="Layer 1"><circle class="cls-1" cx="15.29" cy="15.29" r="15.29"/><path class="cls-2" d="M20.64,15a.74.74,0,0,1,1.48,0v7.22a.74.74,0,0,1-.74.74H9.21a.74.74,0,0,1-.74-.74V15A.74.74,0,0,1,10,15V21.5H20.64V15ZM7,15.22l8.33-8.33,8.33,8.33a.74.74,0,0,0,1-1L15.83,5.33h0a.74.74,0,0,0-1,0L5.92,14.17a.74.74,0,0,0,1,1Z"/></g></g></svg>